<?xml version="1.0" encoding="utf-8"?>
<!-- Svg Vector Icons : http://www.onlinewebfonts.com/icon -->
<!DOCTYPE svg PUBLIC "-//W3C//DTD SVG 1.1//EN" "http://www.w3.org/Graphics/SVG/1.1/DTD/svg11.dtd">
<svg version="1.1" xmlns="http://www.w3.org/2000/svg" xmlns:xlink="http://www.w3.org/1999/xlink" x="0px" y="0px" viewBox="0 0 256 256" enable-background="new 0 0 256 256" xml:space="preserve">
<metadata> Svg Vector Icons : http://www.onlinewebfonts.com/icon </metadata>
<g><g><g><path fill="#000000" d="M29.3,10.6c-7.3,1.2-14.8,6.5-17.7,12.6L10,26.4v23.5c0,22.8,0.1,23.5,1.2,25c2.9,4,2.9,4,18.5,4.2l14.2,0.2l-0.3,74.1l-0.3,74.1l2,4c2.5,4.9,5.5,8.1,10.6,10.7c7.3,3.9,2.4,3.8,90.9,3.8c85.5,0,82.8,0.1,88.3-2.8c3.4-1.7,7.4-5.9,9.3-9.8l1.6-3.3v-23.4c0-22.4-0.1-23.4-1.2-24.9c-2.3-3.1-3.5-3.3-18.7-3.3h-13.9l-0.1-81.5c-0.2-77.4-0.2-81.6-1.2-83.1c-0.6-0.9-1.8-2.1-2.9-2.7c-1.8-1.2-3.6-1.2-88.7-1.1C70.4,10.1,31.1,10.3,29.3,10.6z M37.5,26.7c1.2,0.3,2.9,1.3,3.9,2.1l1.7,1.5v15.8v15.8h-8.1H27V45.8V29.7l1.6-1C32.8,26,33.9,25.7,37.5,26.7z M194.9,102.6V179h-55.8c-55,0-55.9,0-57.8,1.2c-1.1,0.7-2.4,2.2-3,3.6c-1,2.3-1.2,3.9-1.2,22.1c0,19.6,0,19.7-1.3,20.9c-4.1,3.8-12.3,2.8-14.7-1.7c-0.7-1.3-0.8-13.4-0.9-76.5C60.4,107.4,60.2,63,60,49.9l-0.3-23.8h67.7h67.6V102.6L194.9,102.6z M229.6,211.6c0,13.6-0.1,16-0.9,16.7c-0.8,0.8-7.8,0.9-68.1,0.9c-63.8,0-67.2-0.1-66.8-1c0.3-0.5,0.6-8.1,0.7-16.7l0.2-15.7h67.5h67.5V211.6z"/><path fill="#000000" d="M80.7,44.1c-6.1,3.1-6.2,11.3-0.3,14.7l2.2,1.3h44.4h44.5l2.5-1.3c5.8-2.9,6.2-11,0.6-14.4l-2.1-1.3L128,43l-44.7-0.1L80.7,44.1z"/><path fill="#000000" d="M80.1,79.6c-2.9,3-3.4,5.7-1.6,9.3c2.5,5-1.2,4.7,50.6,4.7c43,0.1,45.8,0,47.5-1c5-2.9,5.1-11,0.2-14c-1.8-1.2-2.8-1.2-48.2-1.2H82.3L80.1,79.6z"/><path fill="#000000" d="M82.9,111c-2.8,0.5-4.3,1.6-5.7,4.2c-2.4,4.2-0.7,9.3,3.5,11.5c1.8,1,5.3,1,46.6,1c49.2,0,47.1,0.2,49.9-3.6c2.5-3.6,1.9-8.2-1.6-11.4l-1.6-1.4l-44.5-0.3C105,110.8,84,110.8,82.9,111z"/><path fill="#000000" d="M79.6,146.2c-5.3,3.2-5.5,11.3-0.3,14.4c1.9,1.2,2.4,1.2,47.7,1.2c51-0.1,47.7,0.2,50.5-4.1c2.6-3.7,0.9-9.4-3.4-11.6c-1.8-1-5.3-1-47.3-1C82.6,145,81.5,145.1,79.6,146.2z"/></g></g></g>
</svg>